<svg class="svg-icon" style="width: 1em;height: 1em;vertical-align: middle;fill: currentColor;overflow: hidden;" viewBox="0 0 1024 1024" version="1.1" xmlns="http://www.w3.org/2000/svg"><path d="M352 288v64h64v64H241.984l-54.976-82.016L176.96 320H32v182.016l160 64V800h464.992l9.024-14.016L944 384H992v-64h-107.008l-8 6.016L672 480v-64h-192v-64h64V288z m-256 96h46.016L192 459.008V496l-96-38.016z m728.992 62.016L624 736H256v-256h352v128l51.008-38.016zM944 512S896 597.504 896 624a48 48 0 0 0 96 0c0-26.496-48-112-48-112z"  /></svg>